Patient4_TMGait_0pt6_02_right_39_EMG.mot
version=1
nRows=34
nColumns=33
inDegrees=no
endheader
time	1LAddLong	2LGlutMax	3LGlutMed	4LIliopsoas	5LSemiMemb	6LBicFemLong	7LRecFem	8LVastMed	9LVastLat	10LGasMed	11LTibAnt	12lTibPost	13LPeroneusLong	14LSol	15LExtDigLong	16LFlexDigLong	17RAddLong	18RGlutMax	19RGlutMed	20RIliopsoas	21RSemiMemb	22RBicFemLong	23RRecFem	24RVastMed	25RVastLat	26RGasMed	27RTibAnt	28RTibPost	29RPeroneusLong	30RSol	31RExtDigLong	32RFlexDigLong
47.457	0.001068	0.85281	-0.13184	-0.031128	-0.00473	0.010834	0.3125	0.013885	-0.008545	0.015411	0.21484	0.007019	-0.16266	-0.030975	0.091553	0.072327	-0.076447	-0.36301	-0.68207	0.058746	-0.23697	-0.011444	0.32471	-0.44296	-0.68558	0	-0.060272	-0.010071	0.4686	-0.031891	0.003357	-0.027161
47.458	-0.004578	1.0173	-0.11688	-0.034332	-0.012665	0.002136	0.29602	0.011902	0.009003	0.079803	0.2359	0.002289	-0.25146	-0.078888	0.37079	0.009918	-0.094757	-0.42526	-1.4964	0.1416	-0.39078	0.18936	0.19165	-0.24277	-0.89935	-0.003204	-0.08316	-0.01236	-0.47836	0.04364	0.000763	-0.015259
47.459	-0.015259	1.1581	-0.10529	-0.004578	-0.004272	0.008698	0.25787	0.005188	0.023956	-0.002594	0.13367	0.002441	-0.18631	0.055847	0.25467	0.002747	-0.060272	-0.43839	-1.4645	-0.02243	-0.059967	0.36194	-0.048981	0.11993	-1.1	0.002136	-0.066681	-0.006866	0.56503	-0.097351	0.001221	-0.021057
47.46	-0.023193	1.2579	-0.087585	0.012512	-0.005035	0.003357	0.16525	0.018616	0.029907	-0.096741	-0.30792	0.011749	-0.10269	0.15091	1.2038	0.004578	-0.046234	-0.48065	-0.57709	-0.2095	0.22553	0.24551	-0.39551	0.26947	-0.77988	0.007477	-0.096893	-0.007324	1.4186	-0.063934	-0.002441	-0.024719
47.461	-0.013428	1.4357	-0.084076	-0.007935	-0.006866	0.00412	0.068665	0.014038	0.041809	-0.097656	-0.062103	-0.002747	-0.1503	0.20386	0.049286	0.002441	-0.007019	-0.46524	0.010834	-0.19547	0.11414	-0.088196	-0.20767	0.37201	-0.18509	-0.012817	-0.022888	-0.011902	0.24521	0.16678	0.001373	-0.019531
47.462	-0.013428	1.5625	-0.078125	0.007935	-0.014038	0.010834	0.056915	0.017242	0.049438	-0.076141	0.2243	-0.006561	-0.19486	0.19363	-0.44037	-0.007019	0.001373	-0.55039	-0.65277	-0.080109	-0.0177	-0.10025	0.035706	0.38361	0.051422	-0.019989	0.048676	-0.012054	-0.88974	0.27771	-0.000458	-0.018616
47.463	-0.00824	1.7084	-0.032806	-0.013275	-0.005951	0.016937	0.059509	0.025482	0.06073	-0.007935	0.17639	-0.008545	-0.1741	0.27496	0.13962	-0.003662	-0.00885	-0.5661	-1.2291	0.11078	0.007629	-0.15717	0.22964	0.4538	0.1532	-0.024872	0.10025	-0.010834	-0.11231	0.41061	-0.003662	-0.016022
47.464	-0.002899	1.7708	-0.052643	0.009155	-0.006256	0.022125	0.067291	0.02243	0.061188	0.004578	-0.067444	-0.00061	-0.031281	0.28702	-0.69641	-0.002136	0.036621	-0.46646	-1.1942	0.19852	-0.064087	-0.25803	0.35553	0.22705	0.12772	-0.011139	0.014648	-0.005341	-0.20172	0.20157	-0.002747	-0.010071
47.465	0.002136	1.8263	-0.070496	0.021515	-0.000305	0.015869	0.15701	0.0177	0.054016	-0.020294	-0.14664	0.000763	0.11536	0.26154	-0.1886	-0.000153	0.054169	-0.42572	-1.2628	0.10803	-0.12665	-0.10101	0.4184	0.11627	0.10986	-0.023193	0.045471	-0.013428	0.065613	0.15259	0.001984	-0.017242
47.466	0.000305	1.8684	-0.063019	-0.007782	-0.001678	0.040131	0.18097	0.020447	0.06958	0.010681	0.18433	0.003052	-0.025482	0.22507	-0.19363	-0.009003	0.081177	-0.46097	-1.2808	0.041351	-0.077515	-0.15213	0.54855	0.14389	0.071259	-0.019379	0.034332	-0.009918	-0.57236	0.15884	0.000763	0.000763
47.467	-0.002289	1.8614	-0.05188	-0.005951	0.003052	0.036926	0.23148	0.016785	0.086212	0.007172	0.24094	0.005493	-0.22842	0.28519	-0.25101	-0.005798	0.084839	-0.3891	-1.4766	0.001068	0.089569	-0.37125	0.70755	0.062408	-0.04364	-0.006714	0.035248	-0.009918	-0.58746	-0.034027	-0.000916	0.001678
47.468	0.013885	1.8739	-0.018311	-0.022888	0.003815	0.048828	0.37109	0.018921	0.11414	0.005035	0.11459	0.008392	-0.11215	0.20706	-0.23544	-0.003052	0.067444	-0.28778	-1.4589	-0.035858	0.10346	-0.47714	0.79727	0.003357	-0.12375	0.015259	0.07019	-0.010071	-0.97443	-0.32044	0.009308	0.001068
47.469	0.00412	1.8364	-0.014496	0.011597	0.003815	0.035553	0.57373	0.017548	0.12329	0.011597	-0.18723	0.007782	-0.082855	0.19394	-0.27344	-0.009003	0.064087	-0.25726	-1.049	-0.12054	0.020142	-0.33234	0.84381	-0.10544	-0.21042	0.025024	0.19516	-0.011444	-0.9169	-0.34836	0	0.003357
47.47	-0.004272	1.7964	-0.027771	0.023041	0.007324	0.049744	0.85098	0.019226	0.098572	0.038147	-0.24384	0.011292	-0.11887	0.094452	-0.27954	-0.009155	0.046539	-0.30197	-0.48401	-0.090332	-0.07782	-0.081177	0.69107	-0.29419	-0.17975	0.014801	0.46448	-0.009918	-1.0098	-0.28748	-0.003357	0.006714
47.471	-0.006866	1.7258	-0.048676	0.039673	0.012817	0.042725	0.89401	0.014343	0.088959	0.041656	-0.17792	0.0177	-0.13229	0.028839	-0.20813	-0.011902	-0.040131	-0.31387	-0.69107	0.12665	0.022583	0.19348	0.23178	-0.26947	0.21774	0.008392	0.62622	-0.008087	-0.86441	-0.26688	-0.005188	0.00351
47.472	-0.007477	1.7091	-0.067902	0.026093	0.016937	0.018616	0.83038	0.010834	0.097809	-0.003815	-0.31754	0.018616	0.009766	-0.06546	-0.30487	0.005341	-0.084381	-0.2182	-1.0188	0.33112	-0.090485	0.33951	0.18036	-0.25589	0.37216	-0.007324	0.88776	-0.00946	-1.1983	-0.31632	-0.000916	0.001678
47.473	0.003357	1.657	-0.10239	0.003662	0.020752	0.00473	0.76981	0.020752	0.090942	-0.004883	-0.19287	0.013885	0.058289	-0.10971	0.016174	0.00412	-0.065002	-0.21622	-1.5916	0.39169	-0.27817	0.38025	0.35339	-0.21347	0.34576	0.00473	0.75485	-0.012207	-0.37628	-0.37155	0.002136	0.01236
47.474	0.010376	1.6315	-0.082245	0.011902	0.019989	-0.01236	0.71854	0.019531	0.093384	0.044861	-0.086365	0.022888	-0.00824	-0.15732	0.59784	0.002289	-0.035706	-0.11719	-0.66116	0.11566	-0.24704	0.28854	0.44723	-0.014496	0.36941	0.008698	-0.39093	-0.009613	0.32684	-0.28717	0.000305	-0.00351
47.475	0.007324	1.5523	-0.060577	0.014343	0.015411	-0.028229	0.53177	0.024872	0.11139	0.10101	-0.001984	0.017242	-0.1471	-0.003662	0.18341	0.010071	-0.015106	0.026855	-0.66055	-0.000916	-0.051575	-0.009155	0.5867	-0.037079	0.45731	0.011902	-1.0765	-0.007477	1.4403	-0.17517	-0.00351	0.005798
47.476	0.001984	1.4986	-0.045319	0.02533	0.014191	-0.010681	0.31281	0.02655	0.10727	0.056915	-0.15259	0.024109	-0.14282	0.10712	-0.13138	0.025177	0.013885	0.12161	-0.74356	-0.1622	0.10712	-0.26672	0.62073	-0.012207	0.5098	0.002899	-0.67398	-0.007172	2.307	-0.20798	0.000916	0.005035
47.477	0.006104	1.4882	-0.054626	0.024719	0.007629	-0.002289	0.11017	0.033264	0.085602	0.03952	-0.11917	0.007782	-0.037994	0.1532	-0.028229	0.021515	-0.020142	0.24002	-0.38391	-0.30441	0.24735	-0.4744	0.44952	0.27893	0.27924	0.004883	-0.28656	-0.00351	-0.17853	-0.34836	0.000458	0.005035
47.478	0.005035	1.4575	-0.046692	0.010223	0.012817	0.002136	0.056	0.019684	0.066528	0.052032	-0.14923	0.000153	0.021973	0.15945	0.043945	0.032043	-0.023346	0.2092	-0.38971	-0.27573	0.22201	-0.86609	0.17319	0.44189	0.016937	0.014343	-0.39124	-0.002747	-1.5047	-0.33615	-0.001068	0.008698
47.479	0.006104	1.4085	-0.050964	-0.005188	0.007324	0.003204	0.021973	0.022278	0.03479	-0.028839	-0.024872	-0.001068	0.057831	0.12878	0.10498	0.025635	0.00412	0.19333	-1.4989	-0.14374	0.03006	-1.0103	-0.19058	0.26566	-0.16968	0.013885	-0.24704	-0.003967	-0.67368	-0.24689	-0.003357	0.007935
47.48	0.004578	1.2541	-0.071259	-0.017242	0.006256	-0.002747	0.14145	0.014648	-0.006409	0.041199	0.13962	-0.011139	-0.010376	0.06073	0.05249	0.019684	0.016327	0.29541	-1.5591	0.086975	-0.028381	-1.0718	-0.21133	0.16022	-0.0354	0.00824	0.04776	-0.009918	-0.83344	0.07843	-0.000916	0.000916
47.481	0.000763	1.2604	-0.049438	-0.004578	0.001221	-0.005035	0.24506	0.002289	-0.026703	0.07309	0.066223	-0.018158	-0.050049	-0.010376	0.18707	0.017395	0.015259	0.39581	-1.3756	0.21942	-0.000916	-0.81436	-0.23361	0.12665	-0.28671	-0.003815	0.14191	-0.014954	1.0164	0.2356	0.004578	0.000916
47.482	-0.006409	1.1739	-0.072021	-0.00412	0.003357	0.010834	0.27359	-0.005188	-0.036926	0.070648	-0.12009	-0.010376	-0.054626	-0.093994	0.56961	0.013275	-0.016174	0.42007	-1.281	0.20828	0.00473	-0.46753	-0.27969	0.10666	-0.43442	-0.010986	0.13565	-0.005798	1.7719	0.24262	0.001221	0.009308
47.483	-0.003815	1.0538	-0.081329	-0.020294	0.00473	-0.022888	0.28442	-0.002594	-0.064087	0.065155	-0.26977	-0.023651	-0.045319	-0.15778	-0.14145	0.015869	-0.018616	0.42511	-1.4464	0.13657	-0.018005	0.22095	-0.50156	0.11887	-0.37109	-0.02121	0.15121	-0.007935	1.3895	0.065918	0.010529	0.004578
47.484	-0.000305	0.93506	-0.094147	0.006714	0.008545	-0.027008	0.26001	0.003815	-0.083008	0.06958	-0.2095	-0.009613	-0.029144	-0.12085	-0.49744	0.005341	-0.031128	0.32044	-1.891	0.058746	-0.076141	0.73791	-0.43335	0.10956	-0.18677	-0.035553	0.15503	-0.00351	0.13367	0.12421	-0.000153	0.006409
47.485	0.005951	0.83267	-0.096588	0.02655	0.00824	-0.033875	0.19714	-0.002136	-0.081787	0.039673	-0.01709	-0.008087	-0.020599	-0.08606	-0.006866	-0.01236	-0.008698	0.34149	-1.6052	-0.022736	-0.078278	0.64148	-0.029144	-0.014801	-0.062408	-0.011292	0.15472	-0.009155	0.013733	0.21515	0.000153	0.006866
47.486	0.005798	0.73425	-0.076599	0.02655	0.004425	-0.021362	0.20264	-0.007935	-0.0737	0.058594	0.040436	-0.001831	-0.070801	-0.060425	0.20737	0.012512	0.025177	0.13412	-1.6599	-0.014496	-0.067749	0.73288	0.10284	-0.045166	-0.048523	0.018768	-0.001831	-0.005341	0.37674	-0.036469	0.002289	0.013733
47.487	0.003052	0.6221	-0.060883	0.022736	0.005188	-0.025482	0.30304	-0.017242	-0.072937	0.07019	0.11856	-0.002747	-0.050049	-0.048218	0.30243	0.010071	0.010529	-0.082092	-1.8184	0.041809	-0.11185	0.59036	0.10452	-0.002441	-0.010834	0.011902	0.011902	-0.003815	2.0773	-0.2034	0.014191	0.01358
47.488	0.004578	0.55634	-0.068512	0.019073	0.005493	-0.046234	0.39917	-0.025787	-0.053406	0.031128	0.056763	-0.004425	0.011597	0.052643	-0.72006	0.014648	0.035706	-0.31281	-1.2888	-0.017853	-0.12543	0.30701	0.036774	0.15579	0.001831	-0.001678	0.093231	0.000153	1.1522	-0.030975	0.00061	0.003967
47.489	0.009003	0.47867	-0.081024	0.033569	0.009766	-0.039215	0.46738	-0.031738	-0.062866	0.032196	0.054169	-0.03067	-0.003204	0.089417	-0.39032	0.016937	0.018768	-0.43045	-1.3997	-0.03479	0.075684	0.41214	0.093079	0.21805	0.015869	-0.014343	0.19424	0.001373	-0.38773	0.24094	0.002441	0.003204
47.49	0.014801	0.30777	-0.06958	0.013275	0.008392	-0.047455	0.42038	-0.054779	-0.058136	0.062866	0.18601	-0.027466	-0.042725	0.1001	0.006866	0.023499	-0.031281	-0.4538	-1.4941	-0.070496	0.53513	0.32333	0.032501	0.224	0.071259	0.002747	0.15243	-0.003662	0.095825	0.13473	0.002747	0.000305
